<?xml version="1.0" encoding="utf-8"?>
<!-- Generator: Adobe Illustrator 26.0.1, SVG Export Plug-In . SVG Version: 6.00 Build 0)  -->
<svg version="1.1" xmlns="http://www.w3.org/2000/svg" xmlns:xlink="http://www.w3.org/1999/xlink" x="0px" y="0px"
	 viewBox="0 0 512 512" style="enable-background:new 0 0 512 512;" xml:space="preserve">
<style type="text/css">
	.st0{fill:#FDEDF2;}
	.st1{fill:#F3D8E8;}
	.st2{fill:#F5E0ED;}
	.st3{display:none;}
	.st4{display:inline;fill:#F3D8E8;}
</style>
<g id="Layer_1">
	<path class="st0" d="M378.4,40.8c-54,0-101.5,32.6-122.4,79.9c-20.9-47.4-68.4-79.9-122.4-79.9C59.9,40.8,0,100.7,0,174.4
		C0,247,82.4,317.8,122,351.7l0.4,0.3c33.9,29.1,125.8,115.5,126.7,116.4c2,1.8,4.5,2.8,7,2.8s5-0.9,7-2.8
		c0.9-0.9,92.8-87.3,126.7-116.4l0.4-0.3c39.6-34,122-104.7,122-177.3C512,100.7,452.1,40.8,378.4,40.8z"/>
	<path class="st1" d="M378.4,40.8c-54,0-101.5,32.6-122.4,79.9c-20.9-47.4-68.4-79.9-122.4-79.9C59.9,40.8,0,100.7,0,174.4
		C0,247,82.4,317.8,122,351.7l0.4,0.3c33.9,29.1,125.8,115.5,126.7,116.4c2,1.8,4.5,2.8,7,2.8s5-0.9,7-2.8
		c0.9-0.9,92.8-87.3,126.7-116.4l0.4-0.3c39.6-34,122-104.7,122-177.3C512,100.7,452.1,40.8,378.4,40.8z M376.7,336.3l-0.4,0.3
		c-28.6,24.6-98,89.5-120.3,110.4c-22.3-20.9-91.7-85.8-120.4-110.5l-0.4-0.3c-34.4-29.5-114.9-98.6-114.9-161.8
		c0-62.4,50.8-113.2,113.2-113.2c56.7,0,105,42.4,112.3,98.5c0.7,5.1,5,8.9,10.1,8.9c5.1,0,9.5-3.8,10.1-8.9
		c7.3-56.2,55.5-98.5,112.3-98.5c62.4,0,113.2,50.8,113.2,113.2C491.6,237.7,411.1,306.8,376.7,336.3z"/>
	<g>
		<path class="st2" d="M264,402.6c-33.7-31.5-78.5-72.9-100.5-91.8l-0.3-0.3c-3.8-3.3-8.1-7-12.8-11c-4.2-3.7-10.7-3.3-14.4,1
			c-3.7,4.2-3.3,10.7,1,14.4c4.7,4.1,9.1,7.9,12.9,11.2l0.3,0.3c22.9,19.6,72.4,65.6,99.9,91.3c2,1.8,4.5,2.7,7,2.7
			c2.7,0,5.4-1.1,7.5-3.2C268.3,412.9,268.1,406.4,264,402.6z"/>
		<path class="st2" d="M122.6,274c-6.5-6.3-12.6-12.6-18.2-18.6c-3.8-4.1-10.3-4.4-14.4-0.5c-4.1,3.8-4.4,10.3-0.5,14.4
			c5.8,6.3,12.2,12.8,19,19.4c2,1.9,4.5,2.9,7.1,2.9c2.7,0,5.3-1,7.3-3.1C126.8,284.4,126.7,277.9,122.6,274z"/>
	</g>
</g>
<g id="Layer_2" class="st3">
	<polygon class="st4" points="0,174.4 45.7,73.8 175.8,47.7 256,120.7 355.2,42.8 477,84.3 512.2,174.4 477,266 256.1,471.2 
		41.6,271.9 	"/>
</g>
</svg>
